<svg
   xmlns:dc="http://purl.org/dc/elements/1.1/"
   xmlns:cc="http://creativecommons.org/ns#"
   xmlns:rdf="http://www.w3.org/1999/02/22-rdf-syntax-ns#"
   xmlns:svg="http://www.w3.org/2000/svg"
   xmlns="http://www.w3.org/2000/svg"
   xmlns:sodipodi="http://sodipodi.sourceforge.net/DTD/sodipodi-0.dtd"
   xmlns:inkscape="http://www.inkscape.org/namespaces/inkscape"
   width="480"
   height="480"
   viewBox="0 0 127 127"
   version="1.1"
   id="svg911"
   inkscape:version="0.92.5 (2060ec1f9f, 2020-04-08)"
   sodipodi:docname="Facebook f Logo (with gradient).svg">
  <title
     id="title949">Facebook f logo (with gradient)</title>
  <defs
     id="defs905">
    <clipPath
       clipPathUnits="userSpaceOnUse"
       id="clipPath18">
      <path
         d="M 180,360 C 80.589,360 0,279.411 0,180 v 0 C 0,80.589 80.589,0 180,0 v 0 c 99.411,0 180,80.589 180,180 v 0 c 0,99.411 -80.589,180 -180,180 z"
         id="path16"
         inkscape:connector-curvature="0" />
    </clipPath>
    <linearGradient
       x1="0"
       y1="0"
       x2="1"
       y2="0"
       gradientUnits="userSpaceOnUse"
       gradientTransform="matrix(0,-360,-360,0,180,360)"
       spreadMethod="pad"
       id="linearGradient28">
      <stop
         style="stop-opacity:1;stop-color:#18adff"
         offset="0"
         id="stop24" />
      <stop
         style="stop-opacity:1;stop-color:#0164de"
         offset="1"
         id="stop26" />
    </linearGradient>
    <clipPath
       clipPathUnits="userSpaceOnUse"
       id="clipPath38">
      <path
         d="M 0,360 H 360 V 0 H 0 Z"
         id="path36"
         inkscape:connector-curvature="0" />
    </clipPath>
  </defs>
  <sodipodi:namedview
     id="base"
     pagecolor="#ffffff"
     bordercolor="#666666"
     borderopacity="1.0"
     inkscape:pageopacity="0.0"
     inkscape:pageshadow="2"
     inkscape:zoom="0.67889847"
     inkscape:cx="465.03283"
     inkscape:cy="-50.065971"
     inkscape:document-units="px"
     inkscape:current-layer="layer1"
     showgrid="false"
     fit-margin-top="0"
     fit-margin-left="0"
     fit-margin-right="0"
     fit-margin-bottom="0"
     showborder="false"
     inkscape:window-width="1920"
     inkscape:window-height="1016"
     inkscape:window-x="0"
     inkscape:window-y="27"
     inkscape:window-maximized="1"
     units="px" />
  <metadata
     id="metadata908">
    <rdf:RDF>
      <cc:Work
         rdf:about="">
        <dc:format>image/svg+xml</dc:format>
        <dc:type
           rdf:resource="http://purl.org/dc/dcmitype/StillImage" />
        <dc:title>Facebook f logo (with gradient)</dc:title>
        <dc:creator>
          <cc:Agent>
            <dc:title>Rifat Hasan Jihan</dc:title>
          </cc:Agent>
        </dc:creator>
      </cc:Work>
    </rdf:RDF>
  </metadata>
  <g
     inkscape:label="Layer 1"
     inkscape:groupmode="layer"
     id="layer1"
     transform="translate(-24.818061,-48.876463)">
    <g
       transform="matrix(0.35277777,0,0,-0.35277777,24.818061,175.87646)"
       id="g12">
      <g
         id="g14"
         clip-path="url(#clipPath18)">
        <g
           id="g20">
          <g
             id="g22">
            <path
               d="M 180,360 C 80.589,360 0,279.411 0,180 v 0 C 0,80.589 80.589,0 180,0 v 0 c 99.411,0 180,80.589 180,180 v 0 c 0,99.411 -80.589,180 -180,180 z"
               style="fill:url(#linearGradient28);stroke:none"
               id="path30"
               inkscape:connector-curvature="0" />
          </g>
        </g>
      </g>
    </g>
    <g
       transform="matrix(0.35277777,0,0,-0.35277777,24.818061,175.87646)"
       id="g32">
      <g
         id="g34"
         clip-path="url(#clipPath38)">
        <g
           id="g40"
           transform="translate(250.0662,127.9568)">
          <path
             d="m 0,0 7.974,52.043 h -49.917 v 33.768 c 0,14.226 6.961,28.122 29.337,28.122 H 10.1 v 44.298 c 0,0 -20.605,3.519 -40.298,3.519 -41.109,0 -67.991,-24.909 -67.991,-70.042 V 52.043 h -45.715 V 0 h 45.715 v -125.78 c 9.164,-1.443 18.555,-2.177 28.123,-2.177 9.568,0 18.959,0.76 28.123,2.177 V 0 Z"
             style="fill:#fefefe;fill-opacity:1;fill-rule:nonzero;stroke:none"
             id="path42"
             inkscape:connector-curvature="0" />
        </g>
      </g>
    </g>
  </g>
</svg>
